<?xml version="1.0" encoding="UTF-8" standalone="no"?>
<!DOCTYPE svg PUBLIC "-//W3C//DTD SVG 1.1//EN" "http://www.w3.org/Graphics/SVG/1.1/DTD/svg11.dtd">
<svg width="100%" height="100%" viewBox="0 0 512 512" version="1.1" xmlns="http://www.w3.org/2000/svg" xmlns:xlink="http://www.w3.org/1999/xlink" xml:space="preserve" xmlns:serif="http://www.serif.com/" style="fill-rule:evenodd;clip-rule:evenodd;stroke-linecap:round;stroke-linejoin:round;">
    <g id="Ebene-1" serif:id="Ebene 1" transform="matrix(1,0,0,1,6.46995,4.30025)">
        <rect id="rect1" x="-9.921" y="-7.219" width="518.135" height="518.614" style="fill:rgb(90,97,255);"/>
      <g transform="matrix(18.142,0,0,18.142,31.9168,33.9051)">
            <path d="M2.7,10.3C2.248,10.752 1.993,11.366 1.993,12.005C1.993,12.644 2.248,13.258 2.7,13.71L10.29,21.3C10.742,21.752 11.356,22.007 11.995,22.007C12.634,22.007 13.248,21.752 13.7,21.3L21.29,13.71C21.742,13.258 21.997,12.644 21.997,12.005C21.997,11.366 21.742,10.752 21.29,10.3L13.7,2.71C13.248,2.258 12.634,2.003 11.995,2.003C11.356,2.003 10.742,2.258 10.29,2.71L2.7,10.3Z" style="fill:none;fill-rule:nonzero;stroke:rgb(233,215,255);stroke-width:2.61px;"/>
        </g>
    </g>
</svg>
